# xmcd CD Database Entry
#
# Track frame offsets:
# 150
# 32282
# 64277
# 89665
# 123955
# 153102
# 194287
# 221765
# 246172
# 275970
# 296587
#
# Disc length: 4334 seconds
#
# Revision: 7
# Processed by: cddbd v1.5.1PL0 Copyright (c) Steve Scherf et al.
# Submitted via: tcd 2.0b
#
DISCID=a510ec0b
DTITLE=Yolanda Adams - Yolanda Live In Washington
DYEAR=1900
DGENRE=Other
TTITLE0=The Only Way
TTITLE1=Let Us Worship Him
TTITLE2=My Everything
TTITLE3=Just A Prayer Away
TTITLE4=The Battle Is The Lord's
TTITLE5=I'll Always Remember
TTITLE6=This Joy
TTITLE7=Through The Storm
TTITLE8=Save The World
TTITLE9=Praise Your Holy Name
TTITLE10=Thank You
EXTD=ID3G:  12
EXTT0=
EXTT1=
EXTT2=
EXTT3=
EXTT4=
EXTT5=
EXTT6=
EXTT7=
EXTT8=
EXTT9=
EXTT10=
PLAYORDER=
